<svg xmlns="http://www.w3.org/2000/svg" xmlns:xlink="http://www.w3.org/1999/xlink" width="500" zoomAndPan="magnify" viewBox="0 0 375 374.999991" height="500" preserveAspectRatio="xMidYMid meet" version="1.0"><defs><clipPath id="b9ba8d9e89"><path d="M 13 12.960938 L 361.710938 12.960938 L 361.710938 361.710938 L 13 361.710938 Z M 13 12.960938 " clip-rule="nonzero"/></clipPath></defs><g clip-path="url(#b9ba8d9e89)"><path fill="#0277b5" d="M 332.574219 12.960938 L 42.269531 12.960938 C 26.21875 12.960938 13.308594 26.046875 13.308594 41.921875 L 13.308594 332.75 C 13.308594 348.800781 26.394531 361.710938 42.269531 361.710938 L 332.402344 361.710938 C 348.453125 361.710938 361.363281 348.625 361.363281 332.75 L 361.363281 41.921875 C 361.535156 26.046875 348.625 12.960938 332.574219 12.960938 Z M 116.417969 300.648438 L 64.949219 300.648438 L 64.949219 146.074219 L 116.417969 146.074219 Z M 90.597656 127.40625 C 74.371094 127.40625 61.285156 114.324219 61.285156 98.097656 C 61.285156 81.875 74.371094 68.789062 90.597656 68.789062 C 106.820312 68.789062 119.90625 81.875 119.90625 98.097656 C 119.90625 114.324219 106.820312 127.40625 90.597656 127.40625 Z M 310.070312 300.648438 L 258.429688 300.648438 L 257.207031 208.882812 C 257.207031 208.882812 258.429688 184.457031 231.738281 184.632812 C 205.042969 184.804688 201.378906 208.882812 201.378906 208.882812 L 201.378906 300.648438 L 149.390625 300.648438 L 149.390625 146.074219 L 199.285156 146.074219 L 199.285156 167.359375 C 199.285156 167.359375 201.378906 160.382812 212.894531 152.183594 C 224.410156 143.980469 243.425781 142.238281 251.625 142.585938 C 259.824219 142.933594 270.992188 141.539062 289.65625 154.449219 C 309.722656 168.230469 310.246094 204.347656 310.246094 204.347656 Z M 310.070312 300.648438 " fill-opacity="1" fill-rule="nonzero"/></g></svg>