<svg xmlns="http://www.w3.org/2000/svg" xmlns:xlink="http://www.w3.org/1999/xlink" width="500" zoomAndPan="magnify" viewBox="0 0 375 374.999991" height="500" preserveAspectRatio="xMidYMid meet" version="1.0"><defs><clipPath id="1d08e8f712"><path d="M 14.917969 14.917969 L 359.917969 14.917969 L 359.917969 359.917969 L 14.917969 359.917969 Z M 14.917969 14.917969 " clip-rule="nonzero"/></clipPath></defs><rect x="-37.5" width="450" fill="#ffffff" y="-37.499999" height="449.999989" fill-opacity="1"/><rect x="-37.5" width="450" fill="#ffffff" y="-37.499999" height="449.999989" fill-opacity="1"/><g clip-path="url(#1d08e8f712)"><path fill="#f03c2e" d="M 353.40625 172.054688 L 202.78125 21.429688 C 202.265625 20.914062 201.726562 20.425781 201.167969 19.964844 C 200.605469 19.503906 200.019531 19.070312 199.414062 18.667969 C 198.808594 18.261719 198.1875 17.886719 197.546875 17.546875 C 196.902344 17.203125 196.246094 16.890625 195.574219 16.613281 C 194.902344 16.332031 194.21875 16.089844 193.523438 15.878906 C 192.824219 15.667969 192.121094 15.488281 191.40625 15.347656 C 190.695312 15.207031 189.972656 15.097656 189.25 15.027344 C 188.527344 14.957031 187.800781 14.921875 187.074219 14.921875 C 186.34375 14.921875 185.621094 14.957031 184.894531 15.027344 C 184.171875 15.097656 183.453125 15.207031 182.738281 15.347656 C 182.023438 15.488281 181.320312 15.667969 180.625 15.878906 C 179.925781 16.089844 179.242188 16.332031 178.570312 16.613281 C 177.898438 16.890625 177.242188 17.203125 176.601562 17.546875 C 175.957031 17.886719 175.335938 18.261719 174.730469 18.667969 C 174.125 19.070312 173.542969 19.503906 172.980469 19.964844 C 172.417969 20.425781 171.878906 20.914062 171.363281 21.429688 L 140.097656 52.695312 L 179.773438 92.371094 C 189.003906 89.136719 199.566406 91.347656 206.921875 98.699219 C 207.792969 99.570312 208.597656 100.5 209.339844 101.484375 C 210.078125 102.46875 210.746094 103.503906 211.34375 104.582031 C 211.941406 105.660156 212.457031 106.773438 212.898438 107.925781 C 213.339844 109.078125 213.695312 110.253906 213.972656 111.453125 C 214.246094 112.65625 214.4375 113.871094 214.542969 115.097656 C 214.648438 116.328125 214.667969 117.554688 214.601562 118.785156 C 214.535156 120.015625 214.382812 121.238281 214.144531 122.445312 C 213.910156 123.65625 213.589844 124.84375 213.183594 126.007812 L 251.425781 164.25 C 260.675781 161.058594 271.351562 163.117188 278.734375 170.523438 C 279.347656 171.136719 279.929688 171.777344 280.480469 172.445312 C 281.027344 173.117188 281.542969 173.8125 282.027344 174.53125 C 282.507812 175.25 282.953125 175.992188 283.359375 176.757812 C 283.769531 177.519531 284.140625 178.304688 284.472656 179.101562 C 284.804688 179.902344 285.09375 180.71875 285.347656 181.546875 C 285.597656 182.375 285.808594 183.214844 285.976562 184.066406 C 286.144531 184.914062 286.273438 185.769531 286.359375 186.632812 C 286.445312 187.496094 286.484375 188.359375 286.484375 189.226562 C 286.484375 190.089844 286.445312 190.957031 286.359375 191.816406 C 286.273438 192.679688 286.148438 193.535156 285.976562 194.386719 C 285.808594 195.234375 285.597656 196.074219 285.347656 196.902344 C 285.097656 197.730469 284.804688 198.546875 284.472656 199.347656 C 284.140625 200.148438 283.773438 200.929688 283.363281 201.695312 C 282.953125 202.457031 282.511719 203.199219 282.027344 203.917969 C 281.546875 204.640625 281.03125 205.335938 280.480469 206.003906 C 279.933594 206.675781 279.351562 207.316406 278.738281 207.925781 C 278.125 208.539062 277.484375 209.121094 276.816406 209.671875 C 276.144531 210.21875 275.449219 210.734375 274.730469 211.214844 C 274.007812 211.699219 273.265625 212.140625 272.503906 212.550781 C 271.738281 212.957031 270.957031 213.328125 270.15625 213.660156 C 269.355469 213.992188 268.542969 214.28125 267.710938 214.535156 C 266.882812 214.785156 266.042969 214.996094 265.195312 215.164062 C 264.34375 215.332031 263.488281 215.457031 262.625 215.542969 C 261.765625 215.628906 260.898438 215.667969 260.035156 215.667969 C 259.167969 215.667969 258.304688 215.625 257.441406 215.542969 C 256.578125 215.457031 255.722656 215.328125 254.875 215.160156 C 254.023438 214.988281 253.183594 214.777344 252.355469 214.527344 C 251.527344 214.277344 250.710938 213.984375 249.914062 213.652344 C 249.113281 213.320312 248.332031 212.949219 247.566406 212.539062 C 246.804688 212.132812 246.0625 211.6875 245.339844 211.203125 C 244.621094 210.722656 243.925781 210.207031 243.257812 209.65625 C 242.585938 209.105469 241.945312 208.527344 241.335938 207.914062 C 233.574219 200.152344 231.652344 188.722656 235.578125 179.160156 L 199.914062 143.496094 L 199.914062 237.347656 C 202.519531 238.636719 204.855469 240.304688 206.921875 242.347656 C 207.535156 242.960938 208.113281 243.601562 208.664062 244.269531 C 209.210938 244.941406 209.726562 245.632812 210.210938 246.355469 C 210.691406 247.074219 211.132812 247.816406 211.542969 248.578125 C 211.949219 249.34375 212.320312 250.125 212.652344 250.925781 C 212.984375 251.726562 213.273438 252.539062 213.527344 253.367188 C 213.777344 254.195312 213.988281 255.035156 214.15625 255.886719 C 214.324219 256.734375 214.453125 257.589844 214.539062 258.453125 C 214.621094 259.3125 214.664062 260.175781 214.664062 261.042969 C 214.664062 261.910156 214.621094 262.773438 214.539062 263.632812 C 214.453125 264.496094 214.324219 265.351562 214.15625 266.199219 C 213.988281 267.050781 213.777344 267.890625 213.527344 268.71875 C 213.273438 269.546875 212.984375 270.359375 212.652344 271.160156 C 212.320312 271.960938 211.949219 272.742188 211.542969 273.507812 C 211.132812 274.269531 210.691406 275.011719 210.210938 275.730469 C 209.726562 276.453125 209.210938 277.144531 208.664062 277.816406 C 208.113281 278.484375 207.535156 279.125 206.921875 279.738281 C 206.308594 280.351562 205.667969 280.929688 205 281.480469 C 204.328125 282.03125 203.632812 282.542969 202.914062 283.027344 C 202.195312 283.507812 201.453125 283.953125 200.6875 284.359375 C 199.925781 284.769531 199.144531 285.136719 198.34375 285.46875 C 197.542969 285.800781 196.730469 286.089844 195.902344 286.34375 C 195.074219 286.59375 194.234375 286.804688 193.382812 286.972656 C 192.535156 287.140625 191.679688 287.269531 190.816406 287.355469 C 189.957031 287.4375 189.09375 287.480469 188.226562 287.480469 C 187.359375 287.480469 186.496094 287.4375 185.636719 287.355469 C 184.773438 287.269531 183.917969 287.140625 183.070312 286.972656 C 182.21875 286.804688 181.378906 286.59375 180.550781 286.34375 C 179.722656 286.089844 178.910156 285.800781 178.109375 285.46875 C 177.308594 285.136719 176.527344 284.769531 175.761719 284.359375 C 175 283.953125 174.257812 283.507812 173.539062 283.027344 C 172.816406 282.542969 172.125 282.03125 171.453125 281.480469 C 170.785156 280.929688 170.144531 280.351562 169.53125 279.738281 C 168.917969 279.125 168.335938 278.484375 167.789062 277.816406 C 167.238281 277.148438 166.722656 276.453125 166.238281 275.734375 C 165.757812 275.011719 165.3125 274.269531 164.902344 273.507812 C 164.496094 272.746094 164.125 271.960938 163.792969 271.164062 C 163.460938 270.363281 163.167969 269.546875 162.917969 268.71875 C 162.667969 267.890625 162.457031 267.050781 162.285156 266.203125 C 162.117188 265.351562 161.992188 264.496094 161.90625 263.636719 C 161.820312 262.773438 161.777344 261.910156 161.777344 261.042969 C 161.777344 260.175781 161.820312 259.3125 161.90625 258.449219 C 161.992188 257.589844 162.117188 256.734375 162.285156 255.882812 C 162.457031 255.035156 162.667969 254.195312 162.917969 253.367188 C 163.167969 252.539062 163.460938 251.722656 163.792969 250.921875 C 164.125 250.125 164.496094 249.339844 164.902344 248.578125 C 165.3125 247.816406 165.757812 247.074219 166.238281 246.351562 C 166.722656 245.632812 167.238281 244.9375 167.789062 244.269531 C 168.335938 243.601562 168.917969 242.960938 169.53125 242.347656 C 172.085938 239.804688 174.921875 237.875 178.1875 236.582031 L 178.1875 141.855469 C 175.039062 140.5625 172.085938 138.652344 169.53125 136.089844 C 168.609375 135.167969 167.757812 134.179688 166.980469 133.132812 C 166.203125 132.085938 165.507812 130.988281 164.894531 129.835938 C 164.28125 128.683594 163.753906 127.496094 163.316406 126.265625 C 162.878906 125.039062 162.535156 123.785156 162.28125 122.503906 C 162.03125 121.222656 161.875 119.933594 161.8125 118.628906 C 161.75 117.324219 161.789062 116.023438 161.917969 114.726562 C 162.050781 113.429688 162.277344 112.148438 162.601562 110.882812 C 162.921875 109.621094 163.335938 108.386719 163.839844 107.183594 L 124.703125 68.070312 L 21.417969 171.246094 C 20.902344 171.761719 20.414062 172.300781 19.953125 172.859375 C 19.492188 173.421875 19.058594 174.007812 18.652344 174.613281 C 18.25 175.21875 17.875 175.839844 17.53125 176.484375 C 17.1875 177.125 16.875 177.78125 16.597656 178.453125 C 16.320312 179.125 16.074219 179.8125 15.863281 180.507812 C 15.652344 181.203125 15.472656 181.910156 15.332031 182.625 C 15.191406 183.335938 15.082031 184.058594 15.011719 184.78125 C 14.941406 185.503906 14.90625 186.230469 14.90625 186.960938 C 14.90625 187.6875 14.941406 188.414062 15.011719 189.136719 C 15.082031 189.863281 15.191406 190.582031 15.332031 191.296875 C 15.472656 192.007812 15.652344 192.714844 15.863281 193.410156 C 16.074219 194.109375 16.320312 194.792969 16.597656 195.464844 C 16.875 196.136719 17.1875 196.792969 17.53125 197.4375 C 17.875 198.078125 18.25 198.703125 18.652344 199.308594 C 19.058594 199.910156 19.492188 200.496094 19.953125 201.058594 C 20.414062 201.621094 20.902344 202.160156 21.417969 202.671875 L 172.054688 353.289062 C 172.570312 353.800781 173.105469 354.289062 173.667969 354.75 C 174.230469 355.214844 174.816406 355.648438 175.421875 356.050781 C 176.027344 356.457031 176.648438 356.828125 177.289062 357.171875 C 177.933594 357.515625 178.589844 357.824219 179.261719 358.105469 C 179.933594 358.382812 180.617188 358.628906 181.3125 358.839844 C 182.011719 359.050781 182.714844 359.226562 183.429688 359.371094 C 184.140625 359.511719 184.859375 359.617188 185.585938 359.6875 C 186.308594 359.761719 187.035156 359.796875 187.761719 359.796875 C 188.492188 359.796875 189.214844 359.761719 189.941406 359.6875 C 190.664062 359.617188 191.382812 359.511719 192.097656 359.371094 C 192.8125 359.226562 193.515625 359.050781 194.210938 358.839844 C 194.90625 358.628906 195.59375 358.382812 196.265625 358.105469 C 196.9375 357.824219 197.59375 357.515625 198.234375 357.171875 C 198.875 356.828125 199.5 356.457031 200.105469 356.050781 C 200.710938 355.648438 201.292969 355.214844 201.855469 354.75 C 202.417969 354.289062 202.957031 353.800781 203.472656 353.289062 L 353.40625 203.589844 C 353.921875 203.074219 354.410156 202.535156 354.871094 201.972656 C 355.332031 201.410156 355.765625 200.828125 356.171875 200.222656 C 356.578125 199.617188 356.949219 198.996094 357.292969 198.351562 C 357.636719 197.710938 357.949219 197.054688 358.226562 196.382812 C 358.507812 195.707031 358.75 195.023438 358.960938 194.328125 C 359.175781 193.632812 359.351562 192.925781 359.492188 192.210938 C 359.636719 191.5 359.742188 190.777344 359.8125 190.054688 C 359.882812 189.332031 359.921875 188.605469 359.921875 187.875 C 359.921875 187.148438 359.882812 186.421875 359.8125 185.699219 C 359.742188 184.972656 359.636719 184.253906 359.492188 183.539062 C 359.351562 182.824219 359.175781 182.121094 358.960938 181.425781 C 358.75 180.726562 358.507812 180.042969 358.226562 179.371094 C 357.949219 178.699219 357.636719 178.042969 357.292969 177.398438 C 356.949219 176.757812 356.578125 176.132812 356.171875 175.527344 C 355.765625 174.925781 355.332031 174.339844 354.871094 173.777344 C 354.410156 173.214844 353.921875 172.675781 353.40625 172.164062 " fill-opacity="1" fill-rule="nonzero"/></g></svg>