<svg xmlns="http://www.w3.org/2000/svg" xmlns:xlink="http://www.w3.org/1999/xlink" width="500" zoomAndPan="magnify" viewBox="0 0 375 374.999991" height="500" preserveAspectRatio="xMidYMid meet" version="1.0"><defs><clipPath id="ac7d48e8d2"><path d="M 23.539062 23.539062 L 351.289062 23.539062 L 351.289062 351.289062 L 23.539062 351.289062 Z M 23.539062 23.539062 " clip-rule="nonzero"/></clipPath><clipPath id="d046f910d0"><path d="M 160 254 L 351.289062 254 L 351.289062 351.289062 L 160 351.289062 Z M 160 254 " clip-rule="nonzero"/></clipPath></defs><rect x="-37.5" width="450" fill="#ffffff" y="-37.499999" height="449.999989" fill-opacity="1"/><rect x="-37.5" width="450" fill="#ffffff" y="-37.499999" height="449.999989" fill-opacity="1"/><g clip-path="url(#ac7d48e8d2)"><path fill="#4a7ebf" d="M 92.167969 23.539062 C 130.070312 23.539062 160.796875 54.257812 160.796875 92.148438 C 160.796875 129.394531 131.105469 159.683594 94.101562 160.710938 C 94.101562 163.863281 94.242188 169.816406 96.023438 173.414062 C 98.5 178.398438 113.339844 187.679688 127.894531 187.679688 L 133.121094 187.679688 C 136.40625 164.289062 156.496094 146.285156 180.796875 146.285156 C 205.003906 146.285156 225.03125 164.140625 228.4375 187.394531 L 255.492188 187.394531 C 258.898438 164.140625 278.925781 146.285156 303.128906 146.285156 C 329.726562 146.285156 351.289062 167.84375 351.289062 194.433594 C 351.289062 221.023438 329.726562 242.578125 303.128906 242.578125 C 278.925781 242.578125 258.898438 224.722656 255.492188 201.46875 L 228.441406 201.46875 C 225.035156 224.722656 205.003906 242.578125 180.796875 242.578125 C 156.640625 242.578125 136.636719 224.792969 133.175781 201.601562 L 127.394531 201.773438 C 117.875 201.703125 107.816406 199.160156 99.742188 193.671875 C 97.539062 192.175781 95.371094 190.605469 93.109375 189.117188 L 93.109375 192.242188 C 93.09375 193.25 92.910156 208.445312 92.898438 225.3125 L 92.898438 228.886719 C 92.902344 239.949219 92.992188 251.347656 93.253906 259.664062 C 93.824219 277.902344 108.660156 292.625 125.03125 296.070312 C 127.160156 296.515625 130.816406 296.574219 133.125 296.375 C 136.414062 272.992188 156.5 254.996094 180.796875 254.996094 C 207.394531 254.996094 228.957031 276.554688 228.957031 303.144531 C 228.957031 329.734375 207.394531 351.289062 180.796875 351.289062 C 156.769531 351.289062 136.855469 333.691406 133.234375 310.6875 L 129.066406 310.6875 C 97.78125 308.980469 78.332031 280.285156 78.671875 257.015625 C 79.097656 227.726562 78.777344 198.425781 78.773438 169.128906 L 78.773438 159.445312 C 47.285156 153.214844 23.539062 125.457031 23.539062 92.152344 C 23.539062 54.257812 54.265625 23.539062 92.167969 23.539062 Z M 180.796875 269.070312 C 161.976562 269.070312 146.71875 284.324219 146.71875 303.144531 C 146.71875 321.960938 161.976562 337.214844 180.796875 337.214844 C 199.621094 337.214844 214.878906 321.960938 214.878906 303.144531 C 214.878906 284.324219 199.621094 269.070312 180.796875 269.070312 Z M 180.796875 160.359375 C 161.976562 160.359375 146.71875 175.613281 146.71875 194.433594 C 146.71875 213.25 161.976562 228.503906 180.796875 228.503906 C 199.621094 228.503906 214.878906 213.25 214.878906 194.433594 C 214.878906 175.613281 199.621094 160.359375 180.796875 160.359375 Z M 303.128906 160.359375 C 284.308594 160.359375 269.050781 175.613281 269.050781 194.433594 C 269.050781 213.25 284.308594 228.503906 303.128906 228.503906 C 321.953125 228.503906 337.214844 213.25 337.214844 194.433594 C 337.214844 175.613281 321.953125 160.359375 303.132812 160.359375 Z M 322.539062 180.085938 C 323.824219 181.367188 324.566406 183.097656 324.605469 184.910156 C 324.648438 186.726562 323.984375 188.488281 322.757812 189.824219 L 322.550781 190.039062 L 301.671875 210.964844 C 300.394531 212.242188 298.679688 212.984375 296.871094 213.03125 C 295.066406 213.078125 293.3125 212.429688 291.972656 211.21875 L 291.753906 211.011719 L 281.53125 200.949219 C 280.871094 200.300781 280.347656 199.527344 279.984375 198.675781 C 279.625 197.824219 279.4375 196.910156 279.429688 195.988281 C 279.421875 195.0625 279.597656 194.148438 279.945312 193.289062 C 280.292969 192.433594 280.804688 191.65625 281.453125 190.996094 C 282.726562 189.703125 284.449219 188.953125 286.265625 188.898438 C 288.078125 188.847656 289.84375 189.496094 291.191406 190.714844 L 291.40625 190.917969 L 296.644531 196.074219 L 312.585938 180.101562 C 313.90625 178.78125 315.695312 178.035156 317.5625 178.03125 C 319.425781 178.03125 321.21875 178.769531 322.539062 180.089844 Z M 199.648438 179.984375 C 200.933594 181.265625 201.671875 182.996094 201.710938 184.808594 C 201.753906 186.625 201.089844 188.382812 199.863281 189.722656 L 199.660156 189.9375 L 178.777344 210.863281 C 177.503906 212.140625 175.785156 212.878906 173.980469 212.925781 C 172.175781 212.972656 170.417969 212.324219 169.078125 211.117188 L 168.859375 210.90625 L 158.636719 200.84375 C 157.339844 199.546875 156.601562 197.800781 156.574219 195.96875 C 156.546875 194.136719 157.234375 192.367188 158.492188 191.03125 C 159.75 189.699219 161.480469 188.910156 163.308594 188.832031 C 165.140625 188.753906 166.929688 189.394531 168.296875 190.613281 L 168.511719 190.816406 L 173.753906 195.972656 L 189.691406 179.996094 C 191.011719 178.675781 192.800781 177.933594 194.667969 177.929688 C 196.535156 177.925781 198.324219 178.667969 199.648438 179.984375 Z M 92.167969 37.613281 C 62.039062 37.613281 37.617188 62.027344 37.617188 92.152344 C 37.617188 122.269531 62.039062 146.6875 92.167969 146.6875 C 122.296875 146.6875 146.71875 122.269531 146.71875 92.152344 C 146.71875 62.03125 122.296875 37.613281 92.167969 37.613281 Z M 86.492188 59.554688 C 97.964844 66.445312 109.285156 73.578125 120.457031 80.949219 C 129.8125 87.121094 129.789062 98.3125 120.328125 104.5 C 108.96875 111.929688 97.417969 119.066406 85.6875 125.894531 C 76.144531 131.449219 65.457031 125.0625 65.199219 113.929688 C 65.035156 106.757812 65.167969 99.578125 65.160156 92.402344 C 65.152344 85.417969 65.015625 78.433594 65.183594 71.453125 C 65.46875 59.613281 76.367188 53.445312 86.492188 59.554688 Z M 78.925781 70.914062 L 78.925781 83.128906 L 78.921875 87.878906 L 78.921875 94.898438 C 78.921875 100.3125 78.925781 105.644531 78.9375 110.972656 C 78.941406 113.484375 80.246094 113.382812 81.9375 112.335938 C 91.671875 106.300781 101.414062 100.269531 111.160156 94.25 C 112.769531 93.253906 112.816406 92.214844 111.238281 91.21875 C 100.796875 84.640625 90.347656 78.085938 78.925781 70.914062 Z M 78.925781 70.914062 " fill-opacity="1" fill-rule="nonzero"/></g><g clip-path="url(#d046f910d0)"><path fill="#85b3df" d="M 194.105469 310.167969 C 195.03125 310.167969 195.945312 309.984375 196.800781 309.632812 C 197.65625 309.277344 198.429688 308.757812 199.085938 308.105469 C 199.738281 307.453125 200.257812 306.679688 200.609375 305.824219 C 200.964844 304.96875 201.144531 304.054688 201.148438 303.128906 C 201.148438 302.203125 200.964844 301.289062 200.609375 300.4375 C 200.257812 299.582031 199.738281 298.804688 199.085938 298.152344 C 198.433594 297.5 197.65625 296.980469 196.800781 296.625 C 195.949219 296.273438 195.03125 296.089844 194.109375 296.089844 C 192.242188 296.089844 190.453125 296.832031 189.132812 298.152344 C 187.8125 299.46875 187.070312 301.261719 187.070312 303.128906 C 187.070312 304.996094 187.8125 306.785156 189.132812 308.105469 C 190.453125 309.425781 192.242188 310.164062 194.109375 310.164062 M 167.160156 310.167969 C 169.027344 310.167969 170.816406 309.425781 172.136719 308.105469 C 173.457031 306.789062 174.199219 304.996094 174.199219 303.128906 C 174.199219 301.261719 173.457031 299.472656 172.136719 298.152344 C 170.816406 296.832031 169.027344 296.089844 167.160156 296.089844 C 165.292969 296.089844 163.503906 296.832031 162.183594 298.152344 C 160.863281 299.46875 160.121094 301.261719 160.121094 303.128906 C 160.121094 304.996094 160.863281 306.785156 162.183594 308.105469 C 163.503906 309.425781 165.292969 310.164062 167.160156 310.164062 M 303.132812 337.214844 C 284.308594 337.214844 269.050781 321.960938 269.050781 303.144531 C 269.050781 284.324219 284.308594 269.070312 303.132812 269.070312 C 321.953125 269.070312 337.214844 284.324219 337.214844 303.144531 C 337.214844 321.960938 321.953125 337.214844 303.132812 337.214844 Z M 303.132812 254.996094 C 278.925781 254.996094 258.898438 272.851562 255.492188 296.105469 L 247.613281 296.105469 C 244.175781 296.105469 241.386719 299.257812 241.386719 303.144531 C 241.386719 307.03125 244.175781 310.179688 247.613281 310.179688 L 255.492188 310.179688 C 258.898438 333.433594 278.925781 351.289062 303.128906 351.289062 C 329.730469 351.289062 351.289062 329.734375 351.289062 303.144531 C 351.289062 276.550781 329.726562 254.996094 303.132812 254.996094 " fill-opacity="1" fill-rule="nonzero"/></g></svg>