<svg xmlns="http://www.w3.org/2000/svg" xmlns:xlink="http://www.w3.org/1999/xlink" width="500" zoomAndPan="magnify" viewBox="0 0 375 374.999991" height="500" preserveAspectRatio="xMidYMid meet" version="1.0"><defs><clipPath id="d564faf15e"><path d="M 15.738281 15.738281 L 359.238281 15.738281 L 359.238281 359.238281 L 15.738281 359.238281 Z M 15.738281 15.738281 " clip-rule="nonzero"/></clipPath></defs><rect x="-37.5" width="450" fill="#ffffff" y="-37.499999" height="449.999989" fill-opacity="1"/><rect x="-37.5" width="450" fill="#ffffff" y="-37.499999" height="449.999989" fill-opacity="1"/><g clip-path="url(#d564faf15e)"><path fill="#252f3e" d="M 187.566406 15.738281 C 184.757812 15.738281 181.949219 15.808594 179.140625 15.949219 C 176.332031 16.085938 173.53125 16.296875 170.730469 16.570312 C 167.933594 16.847656 165.144531 17.191406 162.367188 17.605469 C 159.585938 18.019531 156.816406 18.5 154.058594 19.050781 C 151.300781 19.601562 148.5625 20.21875 145.835938 20.902344 C 143.109375 21.585938 140.398438 22.335938 137.710938 23.152344 C 135.019531 23.96875 132.351562 24.851562 129.707031 25.800781 C 127.058594 26.746094 124.4375 27.757812 121.839844 28.835938 C 119.242188 29.914062 116.675781 31.050781 114.132812 32.253906 C 111.59375 33.457031 109.082031 34.722656 106.605469 36.046875 C 104.125 37.375 101.683594 38.761719 99.269531 40.207031 C 96.859375 41.652344 94.488281 43.15625 92.148438 44.71875 C 89.8125 46.28125 87.515625 47.902344 85.257812 49.574219 C 83 51.25 80.785156 52.980469 78.613281 54.765625 C 76.441406 56.546875 74.316406 58.386719 72.230469 60.273438 C 70.148438 62.160156 68.117188 64.101562 66.128906 66.089844 C 64.140625 68.078125 62.203125 70.113281 60.316406 72.195312 C 58.429688 74.28125 56.59375 76.410156 54.8125 78.582031 C 53.03125 80.753906 51.300781 82.972656 49.628906 85.230469 C 47.953125 87.488281 46.335938 89.785156 44.773438 92.125 C 43.214844 94.460938 41.710938 96.835938 40.265625 99.25 C 38.824219 101.660156 37.4375 104.105469 36.113281 106.585938 C 34.789062 109.066406 33.527344 111.574219 32.324219 114.117188 C 31.125 116.660156 29.988281 119.226562 28.910156 121.824219 C 27.835938 124.421875 26.828125 127.046875 25.878906 129.691406 C 24.933594 132.339844 24.054688 135.007812 23.238281 137.699219 C 22.421875 140.386719 21.675781 143.097656 20.992188 145.824219 C 20.308594 148.550781 19.695312 151.292969 19.148438 154.050781 C 18.601562 156.808594 18.121094 159.578125 17.707031 162.359375 C 17.296875 165.136719 16.953125 167.925781 16.679688 170.726562 C 16.40625 173.523438 16.199219 176.324219 16.0625 179.132812 C 15.925781 181.941406 15.855469 184.75 15.859375 187.5625 C 15.859375 190.371094 15.929688 193.183594 16.066406 195.988281 C 16.207031 198.796875 16.414062 201.601562 16.691406 204.398438 C 16.964844 207.195312 17.3125 209.984375 17.722656 212.765625 C 18.136719 215.542969 18.617188 218.3125 19.167969 221.070312 C 19.71875 223.828125 20.335938 226.570312 21.019531 229.296875 C 21.703125 232.023438 22.453125 234.730469 23.269531 237.421875 C 24.085938 240.109375 24.96875 242.777344 25.914062 245.425781 C 26.863281 248.070312 27.875 250.691406 28.953125 253.289062 C 30.027344 255.886719 31.167969 258.453125 32.371094 260.996094 C 33.574219 263.535156 34.839844 266.046875 36.164062 268.523438 C 37.488281 271.003906 38.875 273.449219 40.320312 275.859375 C 41.765625 278.269531 43.273438 280.644531 44.832031 282.980469 C 46.394531 285.316406 48.015625 287.613281 49.691406 289.871094 C 51.367188 292.128906 53.09375 294.34375 54.878906 296.515625 C 56.664062 298.6875 58.5 300.816406 60.386719 302.898438 C 62.277344 304.980469 64.214844 307.015625 66.203125 309.003906 C 68.191406 310.992188 70.226562 312.925781 72.308594 314.816406 C 74.394531 316.703125 76.523438 318.535156 78.695312 320.320312 C 80.871094 322.101562 83.085938 323.832031 85.34375 325.503906 C 87.601562 327.179688 89.898438 328.796875 92.238281 330.355469 C 94.574219 331.917969 96.949219 333.421875 99.363281 334.867188 C 101.773438 336.308594 104.21875 337.695312 106.699219 339.019531 C 109.175781 340.34375 111.6875 341.605469 114.230469 342.808594 C 116.769531 344.007812 119.339844 345.148438 121.9375 346.222656 C 124.535156 347.296875 127.15625 348.308594 129.804688 349.253906 C 132.453125 350.199219 135.121094 351.082031 137.8125 351.894531 C 140.5 352.710938 143.210938 353.460938 145.9375 354.140625 C 148.664062 354.824219 151.40625 355.441406 154.164062 355.988281 C 156.921875 356.535156 159.6875 357.015625 162.46875 357.425781 C 165.25 357.839844 168.039062 358.179688 170.835938 358.457031 C 173.636719 358.730469 176.4375 358.9375 179.246094 359.074219 C 182.054688 359.210938 184.863281 359.277344 187.671875 359.277344 C 190.484375 359.277344 193.292969 359.207031 196.101562 359.070312 C 198.910156 358.929688 201.710938 358.722656 204.507812 358.445312 C 207.308594 358.171875 210.097656 357.824219 212.875 357.414062 C 215.65625 357 218.425781 356.519531 221.183594 355.96875 C 223.9375 355.417969 226.679688 354.804688 229.40625 354.121094 C 232.132812 353.4375 234.84375 352.6875 237.53125 351.867188 C 240.222656 351.050781 242.890625 350.171875 245.535156 349.222656 C 248.183594 348.273438 250.804688 347.261719 253.402344 346.1875 C 256 345.109375 258.566406 343.96875 261.109375 342.769531 C 263.648438 341.566406 266.160156 340.300781 268.636719 338.976562 C 271.117188 337.648438 273.5625 336.265625 275.972656 334.816406 C 278.382812 333.371094 280.757812 331.867188 283.09375 330.304688 C 285.429688 328.742188 287.726562 327.125 289.984375 325.449219 C 292.242188 323.773438 294.457031 322.046875 296.628906 320.261719 C 298.804688 318.476562 300.929688 316.640625 303.011719 314.753906 C 305.09375 312.863281 307.128906 310.925781 309.117188 308.9375 C 311.105469 306.949219 313.042969 304.914062 314.929688 302.832031 C 316.816406 300.746094 318.652344 298.617188 320.433594 296.445312 C 322.21875 294.273438 323.945312 292.054688 325.621094 289.796875 C 327.292969 287.539062 328.910156 285.242188 330.472656 282.902344 C 332.035156 280.566406 333.535156 278.191406 334.980469 275.78125 C 336.425781 273.367188 337.808594 270.921875 339.132812 268.445312 C 340.460938 265.964844 341.722656 263.453125 342.921875 260.914062 C 344.125 258.371094 345.261719 255.800781 346.335938 253.203125 C 347.414062 250.605469 348.421875 247.984375 349.371094 245.335938 C 350.316406 242.691406 351.195312 240.023438 352.011719 237.332031 C 352.828125 234.640625 353.578125 231.933594 354.257812 229.207031 C 354.941406 226.480469 355.554688 223.738281 356.105469 220.980469 C 356.652344 218.222656 357.132812 215.453125 357.542969 212.671875 C 357.957031 209.890625 358.300781 207.101562 358.574219 204.304688 C 358.847656 201.507812 359.054688 198.707031 359.191406 195.898438 C 359.328125 193.089844 359.398438 190.28125 359.398438 187.46875 C 359.390625 184.660156 359.316406 181.851562 359.171875 179.046875 C 359.03125 176.238281 358.816406 173.4375 358.539062 170.640625 C 358.257812 167.847656 357.90625 165.058594 357.492188 162.28125 C 357.074219 159.5 356.589844 156.734375 356.035156 153.980469 C 355.484375 151.222656 354.863281 148.484375 354.175781 145.757812 C 353.488281 143.035156 352.738281 140.328125 351.917969 137.640625 C 351.097656 134.953125 350.214844 132.285156 349.261719 129.640625 C 348.3125 126.996094 347.300781 124.378906 346.21875 121.785156 C 345.140625 119.1875 344 116.621094 342.796875 114.082031 C 341.59375 111.542969 340.328125 109.035156 339 106.558594 C 337.671875 104.082031 336.285156 101.640625 334.839844 99.230469 C 333.394531 96.820312 331.886719 94.449219 330.324219 92.113281 C 328.761719 89.777344 327.144531 87.484375 325.46875 85.226562 C 323.792969 82.972656 322.0625 80.757812 320.28125 78.585938 C 318.496094 76.414062 316.660156 74.289062 314.773438 72.207031 C 312.886719 70.125 310.945312 68.09375 308.960938 66.105469 C 306.972656 64.121094 304.9375 62.183594 302.855469 60.296875 C 300.773438 58.410156 298.644531 56.574219 296.472656 54.792969 C 294.300781 53.011719 292.085938 51.28125 289.828125 49.609375 C 287.574219 47.933594 285.277344 46.316406 282.941406 44.753906 C 280.605469 43.195312 278.230469 41.691406 275.820312 40.246094 C 273.410156 38.800781 270.96875 37.414062 268.488281 36.089844 C 266.011719 34.765625 263.503906 33.5 260.964844 32.296875 C 258.425781 31.09375 255.855469 29.953125 253.261719 28.878906 C 250.667969 27.800781 248.046875 26.789062 245.402344 25.839844 C 242.757812 24.890625 240.089844 24.007812 237.402344 23.191406 C 234.710938 22.371094 232.007812 21.621094 229.28125 20.933594 C 226.554688 20.25 223.816406 19.632812 221.058594 19.082031 C 218.304688 18.53125 215.539062 18.046875 212.757812 17.628906 C 209.980469 17.214844 207.191406 16.867188 204.394531 16.589844 C 201.601562 16.308594 198.800781 16.101562 195.992188 15.957031 C 193.1875 15.816406 190.378906 15.742188 187.566406 15.738281 Z M 235 332.398438 C 227.550781 333.921875 224.804688 329.335938 224.804688 325.382812 C 224.804688 320.34375 225.019531 304.335938 225.019531 284.390625 C 225.019531 270.558594 220.316406 261.503906 214.941406 256.902344 C 248.046875 253.164062 282.890625 240.574219 282.890625 183.359375 C 282.945312 179.691406 282.65625 176.050781 282.015625 172.441406 C 281.375 168.828125 280.398438 165.308594 279.085938 161.886719 C 277.769531 158.460938 276.144531 155.191406 274.203125 152.078125 C 272.265625 148.964844 270.046875 146.0625 267.554688 143.375 C 269.074219 139.640625 274.332031 124.402344 266.109375 103.847656 C 266.109375 103.847656 253.621094 99.777344 225.140625 119.066406 C 219.074219 117.433594 212.925781 116.203125 206.699219 115.378906 C 200.472656 114.558594 194.214844 114.144531 187.933594 114.144531 C 181.652344 114.144531 175.398438 114.558594 169.167969 115.378906 C 162.941406 116.203125 156.792969 117.433594 150.726562 119.066406 C 122.246094 100.011719 109.738281 103.847656 109.738281 103.847656 C 101.632812 124.324219 106.792969 139.5625 108.3125 143.375 C 105.835938 146.074219 103.636719 148.980469 101.710938 152.097656 C 99.785156 155.214844 98.171875 158.484375 96.867188 161.90625 C 95.566406 165.332031 94.597656 168.847656 93.960938 172.453125 C 93.328125 176.0625 93.039062 179.695312 93.09375 183.359375 C 93.09375 240.339844 127.722656 253.164062 160.808594 256.902344 C 156.539062 260.617188 152.585938 267.078125 151.28125 276.84375 C 142.722656 280.675781 121.359375 287.019531 107.996094 264.570312 C 105.152344 260.0625 96.8125 249.113281 85.089844 249.230469 C 72.601562 249.449219 80.050781 256.347656 85.210938 259.113281 C 91.554688 262.730469 98.789062 275.875 100.546875 280.144531 C 103.492188 288.582031 113.136719 304.570312 150.511719 297.675781 C 150.511719 310.164062 150.726562 321.90625 150.726562 325.34375 C 150.726562 329.296875 148 333.664062 140.53125 332.359375 C 137.769531 331.433594 135.039062 330.429688 132.335938 329.34375 C 129.636719 328.261719 126.96875 327.097656 124.335938 325.855469 C 121.703125 324.613281 119.105469 323.292969 116.550781 321.902344 C 113.996094 320.507812 111.484375 319.039062 109.011719 317.496094 C 106.542969 315.953125 104.121094 314.34375 101.746094 312.65625 C 99.371094 310.972656 97.050781 309.222656 94.777344 307.402344 C 92.503906 305.582031 90.289062 303.695312 88.128906 301.746094 C 85.964844 299.792969 83.863281 297.78125 81.820312 295.707031 C 79.777344 293.632812 77.796875 291.5 75.878906 289.308594 C 73.964844 287.121094 72.109375 284.875 70.324219 282.574219 C 68.539062 280.277344 66.824219 277.925781 65.175781 275.527344 C 63.527344 273.128906 61.949219 270.679688 60.445312 268.1875 C 58.941406 265.695312 57.511719 263.160156 56.15625 260.585938 C 54.800781 258.007812 53.523438 255.394531 52.320312 252.742188 C 51.121094 250.089844 49.996094 247.40625 48.953125 244.6875 C 47.910156 241.972656 46.945312 239.226562 46.0625 236.449219 C 45.179688 233.675781 44.378906 230.878906 43.660156 228.058594 C 42.941406 225.238281 42.308594 222.398438 41.753906 219.539062 C 41.203125 216.679688 40.734375 213.808594 40.351562 210.921875 C 39.96875 208.035156 39.671875 205.140625 39.460938 202.238281 C 39.246094 199.335938 39.117188 196.425781 39.078125 193.515625 C 39.035156 190.605469 39.078125 187.695312 39.207031 184.785156 C 39.335938 181.878906 39.546875 178.976562 39.847656 176.082031 C 40.144531 173.183594 40.53125 170.300781 41 167.425781 C 41.46875 164.554688 42.019531 161.695312 42.65625 158.855469 C 43.292969 156.015625 44.011719 153.195312 44.8125 150.394531 C 45.613281 147.597656 46.5 144.824219 47.464844 142.078125 C 48.429688 139.332031 49.472656 136.613281 50.597656 133.929688 C 51.722656 131.246094 52.921875 128.59375 54.203125 125.980469 C 55.484375 123.363281 56.839844 120.789062 58.269531 118.253906 C 59.699219 115.71875 61.203125 113.226562 62.78125 110.78125 C 64.359375 108.335938 66.007812 105.9375 67.726562 103.585938 C 69.445312 101.234375 71.230469 98.9375 73.082031 96.691406 C 74.9375 94.449219 76.855469 92.257812 78.835938 90.125 C 80.816406 87.992188 82.859375 85.921875 84.964844 83.910156 C 87.066406 81.894531 89.230469 79.945312 91.445312 78.0625 C 93.664062 76.175781 95.9375 74.355469 98.261719 72.605469 C 100.585938 70.851562 102.960938 69.167969 105.382812 67.554688 C 107.808594 65.945312 110.277344 64.402344 112.789062 62.9375 C 115.304688 61.46875 117.859375 60.074219 120.457031 58.757812 C 123.050781 57.441406 125.683594 56.199219 128.351562 55.035156 C 131.023438 53.871094 133.722656 52.789062 136.453125 51.785156 C 139.1875 50.78125 141.945312 49.855469 144.734375 49.015625 C 147.519531 48.171875 150.328125 47.410156 153.160156 46.734375 C 155.992188 46.054688 158.839844 45.460938 161.707031 44.953125 C 164.574219 44.441406 167.453125 44.015625 170.34375 43.675781 C 173.234375 43.335938 176.132812 43.078125 179.039062 42.90625 C 181.945312 42.738281 184.855469 42.652344 187.765625 42.652344 C 190.675781 42.652344 193.585938 42.738281 196.492188 42.90625 C 199.398438 43.078125 202.296875 43.335938 205.1875 43.675781 C 208.078125 44.015625 210.957031 44.441406 213.824219 44.953125 C 216.691406 45.460938 219.539062 46.054688 222.371094 46.734375 C 225.203125 47.410156 228.011719 48.171875 230.796875 49.015625 C 233.585938 49.855469 236.34375 50.78125 239.078125 51.785156 C 241.808594 52.789062 244.507812 53.871094 247.179688 55.035156 C 249.847656 56.199219 252.480469 57.441406 255.074219 58.757812 C 257.671875 60.074219 260.226562 61.46875 262.742188 62.9375 C 265.253906 64.402344 267.722656 65.945312 270.148438 67.558594 C 272.570312 69.167969 274.945312 70.851562 277.269531 72.605469 C 279.59375 74.355469 281.867188 76.175781 284.085938 78.0625 C 286.300781 79.945312 288.464844 81.894531 290.566406 83.910156 C 292.671875 85.921875 294.714844 87.992188 296.695312 90.125 C 298.675781 92.257812 300.59375 94.449219 302.449219 96.691406 C 304.300781 98.9375 306.085938 101.234375 307.804688 103.585938 C 309.523438 105.9375 311.171875 108.335938 312.75 110.78125 C 314.324219 113.226562 315.832031 115.71875 317.261719 118.253906 C 318.691406 120.789062 320.046875 123.363281 321.328125 125.980469 C 322.609375 128.59375 323.808594 131.246094 324.933594 133.929688 C 326.058594 136.613281 327.101562 139.332031 328.066406 142.078125 C 329.03125 144.824219 329.917969 147.597656 330.71875 150.394531 C 331.519531 153.195312 332.238281 156.015625 332.875 158.855469 C 333.511719 161.695312 334.0625 164.554688 334.53125 167.425781 C 335 170.300781 335.382812 173.183594 335.683594 176.082031 C 335.984375 178.976562 336.195312 181.878906 336.324219 184.785156 C 336.453125 187.695312 336.496094 190.605469 336.453125 193.515625 C 336.414062 196.425781 336.285156 199.335938 336.070312 202.238281 C 335.859375 205.140625 335.5625 208.035156 335.179688 210.921875 C 334.792969 213.808594 334.328125 216.679688 333.777344 219.539062 C 333.222656 222.398438 332.589844 225.238281 331.871094 228.058594 C 331.152344 230.878906 330.351562 233.675781 329.46875 236.449219 C 328.585938 239.226562 327.621094 241.972656 326.578125 244.6875 C 325.535156 247.40625 324.410156 250.089844 323.210938 252.742188 C 322.007812 255.394531 320.730469 258.007812 319.375 260.585938 C 318.019531 263.160156 316.589844 265.695312 315.085938 268.1875 C 313.582031 270.679688 312.003906 273.128906 310.355469 275.527344 C 308.707031 277.925781 306.992188 280.277344 305.207031 282.574219 C 303.417969 284.875 301.566406 287.121094 299.652344 289.308594 C 297.734375 291.5 295.753906 293.632812 293.710938 295.707031 C 291.667969 297.78125 289.566406 299.792969 287.402344 301.746094 C 285.242188 303.695312 283.027344 305.582031 280.753906 307.402344 C 278.480469 309.222656 276.160156 310.972656 273.785156 312.65625 C 271.410156 314.34375 268.988281 315.953125 266.519531 317.496094 C 264.046875 319.039062 261.535156 320.507812 258.980469 321.902344 C 256.425781 323.292969 253.828125 324.613281 251.195312 325.855469 C 248.5625 327.097656 245.894531 328.261719 243.195312 329.34375 C 240.492188 330.429688 237.761719 331.433594 235 332.359375 Z M 235 332.398438 " fill-opacity="1" fill-rule="evenodd"/></g></svg>