<svg xmlns="http://www.w3.org/2000/svg" xmlns:xlink="http://www.w3.org/1999/xlink" width="500" zoomAndPan="magnify" viewBox="0 0 375 374.999991" height="500" preserveAspectRatio="xMidYMid meet" version="1.0"><defs><clipPath id="cab7e608ec"><path d="M 32.03125 11 L 343.28125 11 L 343.28125 364 L 32.03125 364 Z M 32.03125 11 " clip-rule="nonzero"/></clipPath></defs><rect x="-37.5" width="450" fill="#ffffff" y="-37.499999" height="449.999989" fill-opacity="1"/><rect x="-37.5" width="450" fill="#ffffff" y="-37.499999" height="449.999989" fill-opacity="1"/><g clip-path="url(#cab7e608ec)"><path fill="#e44d26" d="M 60.585938 328.449219 L 32.3125 11.496094 L 343.003906 11.496094 L 314.695312 328.390625 L 187.464844 363.648438 Z M 60.585938 328.449219 " fill-opacity="1" fill-rule="nonzero"/></g><path fill="#f16529" d="M 187.65625 336.707031 L 290.472656 308.226562 L 314.652344 37.410156 L 187.65625 37.410156 Z M 187.65625 336.707031 " fill-opacity="1" fill-rule="nonzero"/><path fill="#ebebeb" d="M 187.65625 154.96875 L 136.183594 154.96875 L 132.628906 115.160156 L 187.65625 115.160156 L 187.65625 76.292969 L 90.128906 76.292969 L 91.050781 86.710938 L 100.609375 193.839844 L 187.65625 193.839844 Z M 187.65625 255.917969 L 187.480469 255.964844 L 144.171875 244.269531 L 141.394531 213.265625 L 102.355469 213.265625 L 107.804688 274.304688 L 187.480469 296.402344 L 187.65625 296.359375 Z M 187.65625 255.917969 " fill-opacity="1" fill-rule="nonzero"/><path fill="#ffffff" d="M 187.523438 154.96875 L 187.523438 193.839844 L 235.417969 193.839844 L 230.894531 244.253906 L 187.511719 255.949219 L 187.511719 296.386719 L 267.246094 274.304688 L 267.832031 267.730469 L 276.980469 165.386719 L 277.933594 154.953125 L 267.453125 154.953125 Z M 187.523438 76.292969 L 187.523438 115.160156 L 281.472656 115.160156 L 282.25 106.417969 L 284.027344 86.710938 L 284.953125 76.277344 Z M 187.523438 76.292969 " fill-opacity="1" fill-rule="nonzero"/></svg>