<svg xmlns="http://www.w3.org/2000/svg" xmlns:xlink="http://www.w3.org/1999/xlink" width="500" zoomAndPan="magnify" viewBox="0 0 375 374.999991" height="500" preserveAspectRatio="xMidYMid meet" version="1.0"><defs><clipPath id="b7592a952e"><path d="M 9 8.699219 L 366.449219 8.699219 L 366.449219 366 L 9 366 Z M 9 8.699219 " clip-rule="nonzero"/></clipPath><clipPath id="0a36d68add"><path d="M 9 8.699219 L 189 8.699219 L 189 366 L 9 366 Z M 9 8.699219 " clip-rule="nonzero"/></clipPath></defs><rect x="-37.5" width="450" fill="#ffffff" y="-37.499999" height="449.999989" fill-opacity="1"/><rect x="-37.5" width="450" fill="#ffffff" y="-37.499999" height="449.999989" fill-opacity="1"/><g clip-path="url(#b7592a952e)"><path fill="#ffc44d" d="M 22.011719 7.867188 C 18.433594 7.867188 15.023438 9.40625 12.65625 12.089844 C 10.285156 14.773438 9.183594 18.34375 9.628906 21.894531 L 42.90625 288.128906 C 43.425781 292.269531 45.976562 295.875 49.710938 297.742188 L 182.824219 364.300781 C 186.339844 366.058594 190.476562 366.058594 193.988281 364.300781 L 327.105469 297.742188 C 330.835938 295.875 333.386719 292.269531 333.90625 288.128906 L 367.183594 21.894531 C 367.628906 18.34375 366.527344 14.773438 364.160156 12.089844 C 361.789062 9.40625 358.382812 7.867188 354.800781 7.867188 Z M 22.011719 7.867188 " fill-opacity="1" fill-rule="nonzero"/></g><g clip-path="url(#0a36d68add)"><path fill="#e5b045" d="M 188.40625 7.867188 L 188.40625 365.617188 C 186.496094 365.617188 184.582031 365.179688 182.824219 364.300781 L 49.710938 297.742188 C 45.976562 295.875 43.425781 292.269531 42.90625 288.128906 L 9.628906 21.894531 C 9.183594 18.34375 10.285156 14.773438 12.65625 12.089844 C 15.023438 9.40625 18.433594 7.867188 22.011719 7.867188 Z M 188.40625 7.867188 " fill-opacity="1" fill-rule="evenodd"/></g><path fill="#cfd8dc" d="M 163.449219 57.785156 C 170.339844 57.785156 175.929688 63.375 175.929688 70.265625 L 175.929688 286.578125 C 175.929688 291.027344 173.5625 295.140625 169.710938 297.375 C 165.863281 299.605469 161.121094 299.621094 157.257812 297.414062 L 99.019531 264.136719 C 93.035156 260.71875 90.957031 253.09375 94.375 247.109375 C 97.796875 241.125 105.417969 239.046875 111.402344 242.464844 L 150.96875 265.074219 L 150.96875 70.265625 C 150.96875 63.375 156.558594 57.785156 163.449219 57.785156 Z M 163.449219 57.785156 " fill-opacity="1" fill-rule="evenodd"/><path fill="#eceff1" d="M 200.890625 70.265625 C 200.890625 63.375 206.476562 57.785156 213.371094 57.785156 L 296.566406 57.785156 C 303.457031 57.785156 309.046875 63.375 309.046875 70.265625 C 309.046875 77.15625 303.457031 82.746094 296.566406 82.746094 L 225.847656 82.746094 L 225.847656 162.863281 L 285.539062 149.601562 C 289.429688 148.738281 293.496094 149.78125 296.488281 152.414062 C 299.480469 155.042969 301.035156 158.945312 300.675781 162.914062 L 292.355469 254.429688 C 291.964844 258.734375 289.375 262.53125 285.507812 264.460938 L 218.949219 297.742188 C 212.785156 300.824219 205.289062 298.324219 202.207031 292.160156 C 199.125 285.996094 201.625 278.5 207.789062 275.417969 L 268.128906 245.246094 L 274.273438 177.671875 L 216.078125 190.605469 C 212.378906 191.425781 208.511719 190.527344 205.558594 188.15625 C 202.605469 185.789062 200.890625 182.207031 200.890625 178.421875 Z M 200.890625 70.265625 " fill-opacity="1" fill-rule="evenodd"/></svg>