<svg xmlns="http://www.w3.org/2000/svg" xmlns:xlink="http://www.w3.org/1999/xlink" width="500" zoomAndPan="magnify" viewBox="0 0 375 374.999991" height="500" preserveAspectRatio="xMidYMid meet" version="1.0"><defs><clipPath id="71ae9cb22e"><path d="M 23.691406 319 L 81 319 L 81 350 L 23.691406 350 Z M 23.691406 319 " clip-rule="nonzero"/></clipPath><clipPath id="98b672c7bd"><path d="M 48 227 L 166 227 L 166 356.28125 L 48 356.28125 Z M 48 227 " clip-rule="nonzero"/></clipPath></defs><rect x="-37.5" width="450" fill="#ffffff" y="-37.499999" height="449.999989" fill-opacity="1"/><rect x="-37.5" width="450" fill="#ffffff" y="-37.499999" height="449.999989" fill-opacity="1"/><g clip-path="url(#71ae9cb22e)"><path fill="#f15a24" d="M 80.972656 347.210938 L 23.691406 349.191406 L 53.054688 319.335938 L 80.976562 347.210938 Z M 80.972656 347.210938 " fill-opacity="1" fill-rule="nonzero"/></g><path fill="#f15a24" d="M 340.828125 199.152344 C 330.1875 282.109375 254.285156 340.734375 171.308594 330.074219 C 88.328125 319.4375 29.707031 243.550781 40.34375 160.59375 C 50.996094 77.628906 126.882812 19.011719 209.875 29.660156 C 292.851562 40.300781 351.488281 116.195312 340.828125 199.152344 " fill-opacity="1" fill-rule="nonzero"/><path fill="#999999" d="M 229.210938 136.820312 C 239.164062 147.398438 229.347656 172.410156 229.347656 172.410156 C 229.347656 172.410156 219.628906 207.769531 164.046875 253.628906 L 153.65625 243.453125 L 224.238281 171.339844 L 225.597656 169.496094 C 227.476562 166.433594 229.023438 136.613281 229.210938 136.820312 " fill-opacity="1" fill-rule="nonzero"/><path stroke-linecap="round" transform="matrix(1.245724, 0, 0, 1.245449, 23.689793, 27.802736)" fill="none" stroke-linejoin="round" d="M 164.981287 87.53276 C 172.971119 96.026184 165.091038 116.108677 165.091038 116.108677 C 165.091038 116.108677 157.289349 144.499546 112.671093 181.32111 L 104.33006 173.150737 L 160.989507 115.249298 L 162.08074 113.768908 C 163.589024 111.309956 164.830772 87.36653 164.981287 87.53276 Z M 164.981287 87.53276 " stroke="#ffffff" stroke-width="1.918" stroke-opacity="1" stroke-miterlimit="4"/><path stroke-linecap="round" transform="matrix(1.245724, 0, 0, 1.245449, 23.689793, 27.802736)" fill-opacity="1" fill="#666666" fill-rule="nonzero" stroke-linejoin="round" d="M 92.09759 161.110023 L 164.858994 87.32262 C 168.559151 91.707334 169.339947 96.433918 168.270664 103.170947 C 167.549447 107.82853 159.49063 117.149969 159.49063 117.149969 L 104.33006 173.150737 " stroke="#ffffff" stroke-width="1.201" stroke-opacity="1" stroke-miterlimit="4"/><path fill="#ff931e" d="M 229.210938 136.882812 L 138.417969 228.457031 L 138.601562 228.28125 L 138.570312 228.296875 L 116.042969 206.101562 C 163.011719 147.683594 193.382812 136.792969 193.382812 136.792969 C 193.382812 136.792969 213.164062 129.074219 227.265625 135.0625 C 228.351562 135.644531 228.824219 135.976562 229.210938 136.886719 " fill-opacity="1" fill-rule="nonzero"/><path stroke-linecap="round" transform="matrix(1.245724, 0, 0, 1.245449, 23.689793, 27.802736)" fill="none" stroke-linejoin="round" d="M 164.981287 87.582943 L 92.09759 161.110023 L 92.244969 160.968884 L 92.219883 160.98143 L 74.136147 143.160295 C 111.840126 96.255142 136.220401 87.510805 136.220401 87.510805 C 136.220401 87.510805 152.099722 81.31324 163.419695 86.121371 C 164.291427 86.588698 164.67085 86.855293 164.981287 87.586079 Z M 164.981287 87.582943 " stroke="#ffffff" stroke-width="1.918" stroke-opacity="1" stroke-miterlimit="4"/><path fill="#999999" d="M 164.046875 253.628906 C 142.378906 271.460938 114.65625 299.484375 76.976562 319.027344 L 85.359375 354.84375 L 49.835938 319.859375 L 138.417969 228.457031 " fill-opacity="1" fill-rule="nonzero"/><g clip-path="url(#98b672c7bd)"><path stroke-linecap="round" transform="matrix(1.245724, 0, 0, 1.245449, 23.689793, 27.802736)" fill="none" stroke-linejoin="round" d="M 112.671093 181.32111 C 95.277217 195.638865 73.022964 218.139537 42.775744 233.831044 L 49.505013 262.588874 L 20.988714 234.499101 L 92.09759 161.110023 " stroke="#ffffff" stroke-width="1.918" stroke-opacity="1" stroke-miterlimit="4"/></g><path stroke-linecap="round" transform="matrix(1.245724, 0, 0, 1.245449, 23.689793, 27.802736)" fill-opacity="1" fill="#f15a24" fill-rule="nonzero" stroke-linejoin="round" d="M 74.622185 143.398663 L 92.288869 161.000248 L 51.477386 169.838678 L 74.233355 143.078748 L 74.625321 143.398663 Z M 74.622185 143.398663 " stroke="#ffffff" stroke-width="1.918" stroke-opacity="1" stroke-miterlimit="4"/><path fill="#999999" d="M 220.539062 110.308594 C 218.382812 129.789062 232.410156 147.324219 251.894531 149.496094 C 271.363281 151.660156 288.917969 137.625 291.097656 118.152344 C 293.265625 98.679688 279.210938 81.125 259.730469 78.960938 C 240.246094 76.808594 222.707031 90.824219 220.539062 110.308594 " fill-opacity="1" fill-rule="nonzero"/><path stroke-linecap="round" transform="matrix(1.245724, 0, 0, 1.245449, 23.689793, 27.802736)" fill="none" stroke-linejoin="round" d="M 158.019974 66.245881 C 156.289053 81.887205 167.549447 95.966592 183.190452 97.710441 C 198.818915 99.448017 212.910871 88.178862 214.660606 72.543812 C 216.400934 56.908761 205.11859 42.813692 189.48072 41.076115 C 173.839715 39.347948 159.760302 50.601421 158.019974 66.245881 Z M 158.019974 66.245881 " stroke="#ffffff" stroke-width="1.918" stroke-opacity="1" stroke-miterlimit="4"/><path fill="#666666" d="M 286 133.835938 C 292.542969 124.273438 292.207031 109.964844 290.886719 105.726562 C 289.277344 100.535156 285.664062 92.097656 279.375 87.707031 L 246.101562 118.355469 C 246.101562 118.355469 271.675781 145.828125 272.335938 145.917969 C 272.609375 145.949219 280.023438 142.558594 286 133.835938 " fill-opacity="1" fill-rule="nonzero"/><path stroke-linecap="round" transform="matrix(1.245724, 0, 0, 1.245449, 23.689793, 27.802736)" fill="none" stroke-linejoin="round" d="M 210.568483 85.136535 C 215.820825 77.458581 215.551153 65.969876 214.491277 62.566861 C 213.199357 58.39856 210.29881 51.623894 205.25029 48.098559 L 178.54017 72.706905 C 178.54017 72.706905 199.069773 94.765343 199.599711 94.837481 C 199.819211 94.862572 205.770821 92.14016 210.568483 85.136535 Z M 205.181304 65.863238 C 205.181304 65.863238 207.740057 72.170578 204.491444 77.075938 Z M 205.181304 65.863238 " stroke="#ffffff" stroke-width="1.918" stroke-opacity="1" stroke-miterlimit="4"/><path fill="#666666" d="M 154.441406 243.464844 L 117.71875 249.992188 L 139.886719 226.960938 " fill-opacity="1" fill-rule="nonzero"/><path stroke-linecap="round" transform="matrix(1.245724, 0, 0, 1.245449, 23.689793, 27.802736)" fill="none" stroke-linejoin="round" d="M 104.960341 173.160147 L 75.481374 178.401103 L 93.276623 159.908774 M 75.308909 143.530392 L 112.790251 178.799429 " stroke="#ffffff" stroke-width="1.918" stroke-opacity="1" stroke-miterlimit="4"/></svg>