<svg xmlns="http://www.w3.org/2000/svg" xmlns:xlink="http://www.w3.org/1999/xlink" width="500" zoomAndPan="magnify" viewBox="0 0 375 374.999991" height="500" preserveAspectRatio="xMidYMid meet" version="1.0"><defs><clipPath id="6b3028db47"><path d="M 29 36 L 342 36 L 342 358.1875 L 29 358.1875 Z M 29 36 " clip-rule="nonzero"/></clipPath></defs><rect x="-37.5" width="450" fill="#ffffff" y="-37.499999" height="449.999989" fill-opacity="1"/><rect x="-37.5" width="450" fill="#ffffff" y="-37.499999" height="449.999989" fill-opacity="1"/><g clip-path="url(#6b3028db47)"><path fill="#000000" d="M 340.863281 229.273438 C 338.980469 223.59375 334.074219 219.636719 327.726562 218.683594 C 324.738281 218.242188 321.308594 218.425781 317.253906 219.269531 C 310.1875 220.722656 304.9375 221.285156 301.105469 221.394531 C 315.558594 196.96875 327.3125 169.125 334.074219 142.914062 C 345.011719 100.53125 339.164062 81.222656 332.328125 72.488281 C 314.265625 49.375 287.886719 36.953125 256.074219 36.574219 C 239.105469 36.367188 224.203125 39.722656 216.4375 42.132812 C 209.199219 40.855469 201.414062 40.140625 193.257812 40.007812 C 177.953125 39.765625 164.425781 43.105469 152.878906 49.964844 C 146.480469 47.800781 136.214844 44.75 124.359375 42.800781 C 96.476562 38.21875 74.003906 41.789062 57.566406 53.414062 C 37.664062 67.484375 28.4375 91.9375 30.140625 126.085938 C 30.683594 136.929688 36.742188 169.917969 46.285156 201.199219 C 51.769531 219.183594 57.613281 234.113281 63.664062 245.585938 C 72.242188 261.859375 81.417969 271.441406 91.722656 274.886719 C 97.496094 276.804688 107.992188 278.160156 119.027344 268.960938 C 120.425781 270.644531 122.292969 272.332031 124.769531 273.894531 C 127.914062 275.886719 131.761719 277.511719 135.601562 278.464844 C 149.445312 281.933594 162.414062 281.066406 173.472656 276.21875 C 173.546875 278.183594 173.59375 280.066406 173.644531 281.691406 C 173.714844 284.328125 173.789062 286.90625 173.886719 289.328125 C 174.535156 305.664062 175.644531 318.367188 178.941406 327.265625 C 179.125 327.753906 179.367188 328.496094 179.625 329.28125 C 181.257812 334.3125 184.007812 342.742188 190.988281 349.34375 C 198.226562 356.171875 206.980469 358.261719 214.988281 358.261719 C 219.003906 358.261719 222.835938 357.734375 226.203125 357.015625 C 238.191406 354.449219 251.800781 350.527344 261.652344 336.488281 C 270.964844 323.21875 275.484375 303.242188 276.300781 271.746094 C 276.410156 270.851562 276.507812 270.011719 276.605469 269.191406 C 276.667969 268.652344 276.726562 268.09375 276.800781 267.53125 L 279 267.726562 L 279.558594 267.761719 C 291.765625 268.324219 306.695312 265.734375 315.863281 261.46875 C 323.113281 258.097656 346.332031 245.832031 340.863281 229.273438 " fill-opacity="1" fill-rule="nonzero"/></g><path fill="#336791" d="M 319.988281 232.488281 C 283.6875 239.992188 281.183594 227.6875 281.183594 227.6875 C 319.511719 170.75 335.539062 98.492188 321.710938 80.8125 C 283.992188 32.566406 218.683594 55.382812 217.597656 55.972656 L 217.246094 56.039062 C 210.078125 54.546875 202.046875 53.660156 193.027344 53.511719 C 176.597656 53.242188 164.144531 57.824219 154.6875 65 C 154.6875 65 38.199219 16.964844 43.617188 125.410156 C 44.769531 148.480469 76.652344 299.96875 114.679688 254.214844 C 128.582031 237.488281 142.011719 223.339844 142.011719 223.339844 C 148.679688 227.773438 156.664062 230.035156 165.035156 229.226562 L 165.683594 228.664062 C 165.488281 230.742188 165.574219 232.78125 165.953125 235.191406 C 156.152344 246.136719 159.03125 248.066406 139.445312 252.101562 C 119.628906 256.191406 131.269531 263.460938 138.871094 265.367188 C 148.085938 267.675781 169.40625 270.941406 183.8125 250.753906 L 183.238281 253.066406 C 187.070312 256.144531 189.769531 273.078125 189.316406 288.4375 C 188.863281 303.792969 188.558594 314.339844 191.585938 322.574219 C 194.613281 330.808594 197.628906 349.332031 223.371094 343.808594 C 244.882812 339.203125 256.039062 327.242188 257.589844 307.289062 C 258.6875 293.117188 261.175781 295.203125 261.335938 282.535156 L 263.324219 276.523438 C 265.632812 257.304688 263.691406 251.097656 276.949219 253.980469 L 280.171875 254.273438 C 289.921875 254.714844 302.691406 252.699219 310.1875 249.214844 C 326.324219 241.714844 335.894531 229.203125 319.976562 232.488281 L 319.988281 232.488281 " fill-opacity="1" fill-rule="nonzero"/><path fill="#ffffff" d="M 161.507812 135.726562 C 158.238281 135.273438 155.273438 135.695312 153.769531 136.828125 C 152.929688 137.46875 152.671875 138.210938 152.597656 138.71875 C 152.414062 140.070312 153.355469 141.5625 153.929688 142.332031 C 155.578125 144.511719 157.980469 146.007812 160.351562 146.339844 C 160.703125 146.386719 161.046875 146.410156 161.375 146.410156 C 165.34375 146.410156 168.941406 143.324219 169.261719 141.042969 C 169.664062 138.191406 165.511719 136.289062 161.507812 135.726562 " fill-opacity="1" fill-rule="nonzero"/><path fill="#ffffff" d="M 269.878906 135.816406 C 269.5625 133.582031 265.597656 132.941406 261.8125 133.46875 C 258.050781 133.992188 254.390625 135.695312 254.695312 137.9375 C 254.9375 139.683594 258.089844 142.660156 261.8125 142.660156 C 262.128906 142.660156 262.445312 142.636719 262.765625 142.59375 C 265.242188 142.25 267.074219 140.667969 267.9375 139.757812 C 269.257812 138.371094 270.015625 136.824219 269.878906 135.816406 " fill-opacity="1" fill-rule="nonzero"/><path fill="#ffffff" d="M 332.0625 231.644531 C 330.683594 227.453125 326.226562 226.097656 318.816406 227.636719 C 296.84375 232.171875 288.972656 229.03125 286.382812 227.125 C 303.472656 201.074219 317.523438 169.589844 325.101562 140.207031 C 328.703125 126.289062 330.683594 113.367188 330.839844 102.832031 C 331.023438 91.269531 329.058594 82.773438 324.992188 77.582031 C 308.636719 56.660156 284.625 45.4375 255.5625 45.128906 C 235.578125 44.902344 218.699219 50.023438 215.425781 51.460938 C 208.542969 49.746094 201.023438 48.691406 192.84375 48.558594 C 177.84375 48.316406 164.878906 51.910156 154.148438 59.234375 C 149.480469 57.5 137.429688 53.359375 122.691406 50.980469 C 97.214844 46.875 76.96875 49.988281 62.523438 60.230469 C 45.28125 72.457031 37.324219 94.3125 38.863281 125.183594 C 39.382812 135.570312 45.296875 167.523438 54.628906 198.117188 C 66.910156 238.402344 80.261719 261.199219 94.308594 265.894531 C 95.953125 266.441406 97.851562 266.820312 99.941406 266.820312 C 105.0625 266.820312 111.347656 264.511719 117.882812 256.644531 C 128.742188 243.570312 138.878906 232.609375 142.617188 228.628906 C 148.136719 231.597656 154.210938 233.257812 160.410156 233.417969 C 160.421875 233.589844 160.433594 233.746094 160.449219 233.90625 C 159.203125 235.382812 158.1875 236.679688 157.308594 237.792969 C 153.011719 243.253906 152.121094 244.390625 138.28125 247.234375 C 134.347656 248.054688 123.890625 250.203125 123.738281 257.546875 C 123.570312 265.5625 136.097656 268.921875 137.523438 269.277344 C 142.496094 270.523438 147.289062 271.144531 151.855469 271.144531 C 162.972656 271.144531 172.75 267.492188 180.5625 260.417969 C 180.320312 288.984375 181.515625 317.148438 184.933594 325.722656 C 187.742188 332.75 194.601562 349.902344 216.269531 349.902344 C 219.441406 349.902344 222.945312 349.539062 226.789062 348.707031 C 249.398438 343.855469 259.210938 333.863281 263.019531 311.808594 C 265.046875 300.03125 268.539062 271.878906 270.171875 256.789062 C 273.640625 257.867188 278.09375 258.367188 282.917969 258.367188 C 292.964844 258.367188 304.558594 256.226562 311.824219 252.84375 C 320 249.054688 334.734375 239.734375 332.0625 231.644531 Z M 278.230469 129.644531 C 278.144531 134.097656 277.535156 138.144531 276.886719 142.367188 C 276.191406 146.910156 275.472656 151.605469 275.289062 157.304688 C 275.105469 162.84375 275.800781 168.613281 276.472656 174.195312 C 277.816406 185.460938 279.207031 197.054688 273.835938 208.503906 C 272.992188 207.015625 272.1875 205.402344 271.453125 203.605469 C 270.785156 201.980469 269.332031 199.378906 267.328125 195.773438 C 259.515625 181.757812 241.230469 148.921875 250.59375 135.523438 C 253.375 131.535156 260.457031 127.433594 278.230469 129.644531 Z M 256.683594 54.152344 C 282.734375 54.726562 303.328125 64.476562 317.914062 83.132812 C 329.09375 97.441406 316.777344 162.550781 281.121094 218.714844 C 280.769531 218.265625 280.414062 217.8125 280.035156 217.347656 C 279.890625 217.164062 279.742188 216.96875 279.585938 216.785156 C 288.800781 201.550781 287.007812 186.484375 285.394531 173.117188 C 284.734375 167.632812 284.113281 162.453125 284.273438 157.589844 C 284.441406 152.433594 285.125 148.011719 285.773438 143.734375 C 286.589844 138.464844 287.410156 133.011719 287.1875 126.585938 C 287.359375 125.910156 287.421875 125.113281 287.335938 124.167969 C 286.75 118.003906 279.71875 99.554688 265.386719 82.859375 C 257.550781 73.726562 246.125 63.503906 230.515625 56.613281 C 237.226562 55.21875 246.40625 53.921875 256.683594 54.148438 Z M 110.960938 250.886719 C 103.757812 259.550781 98.785156 257.886719 97.152344 257.351562 C 86.492188 253.78125 74.128906 231.238281 63.226562 195.488281 C 53.792969 164.554688 48.28125 133.453125 47.84375 124.730469 C 46.46875 97.144531 53.148438 77.917969 67.703125 67.585938 C 91.386719 50.777344 130.328125 60.839844 145.976562 65.941406 C 145.753906 66.164062 145.519531 66.371094 145.296875 66.597656 C 119.617188 92.554688 120.226562 136.902344 120.292969 139.613281 C 120.289062 140.65625 120.375 142.136719 120.496094 144.175781 C 120.9375 151.632812 121.761719 165.519531 119.5625 181.242188 C 117.523438 195.84375 122.023438 210.152344 131.90625 220.464844 C 132.929688 221.539062 133.996094 222.539062 135.101562 223.480469 C 130.699219 228.199219 121.140625 238.632812 110.960938 250.886719 Z M 138.402344 214.230469 C 130.433594 205.925781 126.816406 194.339844 128.472656 182.488281 C 130.792969 165.875 129.9375 151.414062 129.476562 143.640625 C 129.410156 142.554688 129.355469 141.601562 129.320312 140.851562 C 133.074219 137.519531 150.457031 128.199219 162.847656 131.042969 C 168.511719 132.339844 171.953125 136.195312 173.394531 142.828125 C 180.804688 177.164062 174.371094 191.46875 169.207031 202.980469 C 168.132812 205.335938 167.132812 207.585938 166.265625 209.894531 L 165.605469 211.691406 C 163.910156 216.222656 162.347656 220.425781 161.371094 224.421875 C 152.898438 224.398438 144.664062 220.78125 138.402344 214.230469 Z M 139.699219 260.550781 C 137.226562 259.929688 135.003906 258.851562 133.699219 257.960938 C 134.789062 257.449219 136.730469 256.75 140.09375 256.054688 C 156.378906 252.707031 158.890625 250.335938 164.371094 243.359375 C 165.640625 241.757812 167.058594 239.9375 169.035156 237.738281 L 169.035156 237.726562 C 171.988281 234.429688 173.332031 234.992188 175.773438 236.003906 C 177.75 236.824219 179.679688 239.304688 180.460938 242.039062 C 180.828125 243.324219 181.242188 245.777344 179.886719 247.683594 C 168.414062 263.753906 151.703125 263.554688 139.699219 260.550781 Z M 224.90625 339.90625 C 204.984375 344.171875 197.929688 334.003906 193.289062 322.375 C 190.289062 314.871094 188.8125 281.015625 189.859375 243.628906 C 189.871094 243.140625 189.800781 242.652344 189.664062 242.199219 C 189.542969 241.332031 189.359375 240.453125 189.105469 239.558594 C 187.554688 234.125 183.769531 229.578125 179.214844 227.683594 C 177.410156 226.9375 174.089844 225.558594 170.109375 226.585938 C 170.964844 223.078125 172.429688 219.121094 174.027344 214.84375 L 174.699219 213.035156 C 175.457031 211.007812 176.398438 208.894531 177.410156 206.667969 C 182.816406 194.632812 190.226562 178.152344 182.183594 140.925781 C 179.167969 126.976562 169.109375 120.167969 153.863281 121.75 C 144.714844 122.695312 136.351562 126.390625 132.179688 128.507812 C 131.28125 128.960938 130.460938 129.402344 129.695312 129.828125 C 130.859375 115.777344 135.257812 89.519531 151.714844 72.90625 C 162.078125 62.445312 175.871094 57.28125 192.691406 57.558594 C 225.820312 58.101562 247.0625 75.117188 259.046875 89.300781 C 269.386719 101.519531 274.976562 113.828125 277.210938 120.46875 C 260.425781 118.757812 249.003906 122.078125 243.214844 130.359375 C 230.617188 148.378906 250.101562 183.355469 259.464844 200.15625 C 261.183594 203.234375 262.660156 205.898438 263.136719 207.035156 C 266.175781 214.429688 270.132812 219.363281 273.011719 222.980469 C 273.890625 224.078125 274.757812 225.15625 275.40625 226.082031 C 270.316406 227.550781 261.183594 230.945312 262.015625 247.894531 C 261.34375 256.398438 256.570312 296.203125 254.140625 310.277344 C 250.941406 328.863281 244.105469 335.777344 224.90625 339.90625 Z M 308.035156 244.679688 C 302.832031 247.097656 294.128906 248.90625 285.867188 249.296875 C 276.734375 249.726562 272.085938 248.273438 271 247.378906 C 270.484375 236.824219 274.402344 235.710938 278.566406 234.550781 C 279.214844 234.367188 279.859375 234.183594 280.472656 233.976562 C 280.847656 234.28125 281.277344 234.585938 281.726562 234.894531 C 289.0625 239.742188 302.160156 240.269531 320.628906 236.445312 C 320.703125 236.433594 320.777344 236.421875 320.839844 236.40625 C 318.347656 238.742188 314.089844 241.871094 308.035156 244.679688 Z M 308.035156 244.679688 " fill-opacity="1" fill-rule="nonzero"/></svg>