<svg xmlns="http://www.w3.org/2000/svg" xmlns:xlink="http://www.w3.org/1999/xlink" width="500" zoomAndPan="magnify" viewBox="0 0 375 374.999991" height="500" preserveAspectRatio="xMidYMid meet" version="1.0"><defs><clipPath id="e217cc2d73"><path d="M 27 34 L 352.445312 34 L 352.445312 352 L 27 352 Z M 27 34 " clip-rule="nonzero"/></clipPath></defs><rect x="-37.5" width="450" fill="#ffffff" y="-37.499999" height="449.999989" fill-opacity="1"/><rect x="-37.5" width="450" fill="#ffffff" y="-37.499999" height="449.999989" fill-opacity="1"/><g clip-path="url(#e217cc2d73)"><path fill="#00678c" d="M 326.835938 279.980469 C 309.164062 279.488281 295.457031 281.300781 283.964844 286.132812 C 280.65625 287.464844 275.347656 287.464844 274.910156 291.628906 C 276.679688 293.375 276.890625 296.234375 278.441406 298.65625 C 281.09375 303.050781 285.738281 308.972656 289.933594 312.042969 L 304.074219 322.148438 C 312.691406 327.417969 322.414062 330.492188 330.808594 335.765625 C 335.671875 338.839844 340.53125 342.792969 345.394531 346.089844 C 347.871094 347.847656 349.371094 350.707031 352.46875 351.800781 L 352.46875 351.136719 C 350.921875 349.167969 350.476562 346.3125 348.9375 344.109375 L 342.300781 337.742188 C 335.894531 329.179688 327.9375 321.707031 319.320312 315.5625 C 312.246094 310.730469 296.78125 304.144531 293.910156 296.023438 L 293.472656 295.53125 C 298.328125 295.039062 304.074219 293.332031 308.71875 292.011719 C 316.238281 290.042969 323.082031 290.476562 330.808594 288.503906 L 341.421875 285.425781 L 341.421875 283.457031 C 337.445312 279.503906 334.574219 274.234375 330.378906 270.5 C 319.109375 260.839844 306.726562 251.394531 293.910156 243.488281 C 287.058594 239.097656 278.21875 236.238281 270.929688 232.511719 C 268.269531 231.191406 263.855469 230.53125 262.3125 228.339844 C 258.324219 223.515625 256.121094 217.140625 253.246094 211.425781 L 235.128906 173.214844 C 231.152344 164.648438 228.714844 156.085938 223.859375 148.179688 C 201.097656 110.84375 176.34375 88.226562 138.335938 66.042969 C 130.160156 61.429688 120.4375 59.445312 110.101562 57.035156 L 93.53125 56.148438 C 89.988281 54.613281 86.457031 50.441406 83.363281 48.460938 C 70.765625 40.554688 38.28125 23.425781 28.992188 46 C 23.023438 60.273438 37.835938 74.328125 42.863281 81.578125 C 46.625 86.628906 51.480469 92.335938 54.140625 98.046875 C 55.625 101.777344 56.121094 105.734375 57.671875 109.6875 C 61.203125 119.351562 64.519531 130.117188 69.160156 139.121094 C 71.636719 143.734375 74.238281 148.574219 77.332031 152.742188 C 79.101562 155.203125 82.199219 156.257812 82.855469 160.210938 C 79.761719 164.605469 79.546875 171.1875 77.78125 176.683594 C 69.820312 201.503906 72.914062 232.246094 84.183594 250.515625 C 87.726562 256.003906 96.070312 268.089844 107.394531 263.472656 C 117.339844 259.519531 115.121094 247.003906 117.992188 236.019531 C 118.660156 233.386719 118.214844 231.632812 119.539062 229.867188 L 119.539062 230.359375 L 128.601562 248.585938 C 135.453125 259.347656 147.386719 270.550781 157.328125 278.023438 C 162.628906 281.976562 166.828125 288.789062 173.457031 291.199219 L 173.457031 290.535156 L 173.019531 290.535156 C 171.691406 288.566406 169.699219 287.679688 167.933594 286.144531 C 163.957031 282.191406 159.539062 277.359375 156.441406 272.96875 C 147.164062 260.671875 138.992188 247.050781 131.699219 233 C 128.15625 226.191406 125.058594 218.726562 122.199219 211.917969 C 120.859375 209.277344 120.859375 205.320312 118.65625 204.011719 C 115.335938 208.835938 110.484375 213.019531 108.042969 218.945312 C 103.84375 228.386719 103.40625 240.027344 101.859375 252.105469 C 100.96875 252.328125 101.367188 252.105469 100.96875 252.597656 C 93.90625 250.847656 91.46875 243.59375 88.820312 237.449219 C 82.191406 221.855469 81.082031 196.820312 86.828125 178.8125 C 88.375 174.199219 95.011719 159.703125 92.359375 155.3125 C 91.023438 151.136719 86.617188 148.726562 84.179688 145.429688 C 81.304688 141.253906 78.21875 135.988281 76.230469 131.375 C 70.929688 119.070312 68.28125 105.460938 62.53125 93.160156 C 59.871094 87.449219 55.234375 81.519531 51.476562 76.25 C 47.273438 70.320312 42.644531 66.144531 39.324219 59.121094 C 38.222656 56.660156 36.675781 52.753906 38.445312 50.113281 C 38.878906 48.359375 39.769531 47.652344 41.53125 47.257812 C 44.402344 44.796875 52.585938 47.917969 55.457031 49.230469 C 63.628906 52.527344 70.480469 55.597656 77.328125 60.207031 C 80.425781 62.402344 83.742188 66.574219 87.71875 67.675781 L 92.367188 67.675781 C 99.4375 69.210938 107.386719 68.167969 114.011719 70.136719 C 125.722656 73.878906 136.328125 79.363281 145.839844 85.296875 C 174.78125 103.527344 198.65625 129.441406 214.78125 160.410156 C 217.433594 165.460938 218.535156 170.074219 220.972656 175.34375 C 225.621094 186.109375 231.363281 197.085938 235.996094 207.636719 C 240.640625 217.957031 245.058594 228.503906 251.6875 237.070312 C 255.003906 241.683594 268.257812 244.09375 274.222656 246.511719 C 278.644531 248.480469 285.492188 250.25 289.476562 252.664062 C 296.984375 257.277344 304.5 262.546875 311.566406 267.597656 C 315.097656 270.226562 326.152344 275.71875 326.8125 280.101562 Z M 101.480469 89.136719 C 98.414062 89.109375 95.394531 89.476562 92.425781 90.234375 L 92.425781 90.726562 L 92.859375 90.726562 C 94.628906 94.242188 97.726562 96.660156 99.933594 99.734375 L 105.019531 110.277344 L 105.457031 109.785156 C 108.550781 107.589844 110.101562 104.078125 110.101562 98.808594 C 108.773438 97.273438 108.558594 95.734375 107.453125 94.199219 C 106.125 92.003906 103.253906 90.898438 101.480469 89.148438 Z M 101.480469 89.136719 " fill-opacity="1" fill-rule="evenodd"/></g></svg>