<svg xmlns="http://www.w3.org/2000/svg" xmlns:xlink="http://www.w3.org/1999/xlink" width="500" zoomAndPan="magnify" viewBox="0 0 375 374.999991" height="500" preserveAspectRatio="xMidYMid meet" version="1.0"><defs><clipPath id="d5eba81443"><path d="M 11.675781 11.675781 L 363.425781 11.675781 L 363.425781 363.425781 L 11.675781 363.425781 Z M 11.675781 11.675781 " clip-rule="nonzero"/></clipPath></defs><rect x="-37.5" width="450" fill="#ffffff" y="-37.499999" height="449.999989" fill-opacity="1"/><rect x="-37.5" width="450" fill="#ffffff" y="-37.499999" height="449.999989" fill-opacity="1"/><g clip-path="url(#d5eba81443)"><path fill="#1677c7" d="M 11.675781 187.550781 L 11.675781 363.425781 L 363.425781 363.425781 L 363.425781 11.675781 L 11.675781 11.675781 Z M 225.113281 299.320312 C 226.699219 298.425781 232.605469 295.011719 238.1875 291.769531 L 248.300781 285.910156 L 250.425781 289.046875 C 253.386719 293.558594 259.851562 299.757812 263.761719 301.824219 C 274.988281 307.746094 290.394531 306.910156 297.984375 300.097656 C 300.8125 297.707031 302.585938 294.160156 302.585938 290.203125 C 302.585938 289.96875 302.585938 289.75 302.574219 289.515625 L 302.574219 289.542969 C 302.574219 285.46875 302.058594 283.679688 299.933594 280.601562 C 297.207031 276.703125 291.625 273.421875 275.765625 266.535156 C 257.621094 258.722656 249.808594 253.871094 242.660156 246.160156 C 238.347656 241.265625 235.023438 235.375 233.085938 228.894531 L 233 228.574219 C 231.667969 223.605469 231.328125 211.148438 232.382812 206.136719 C 236.121094 188.589844 249.355469 176.382812 268.453125 172.746094 C 274.652344 171.574219 289.058594 172.015625 295.140625 173.523438 L 295.140625 173.539062 C 304.082031 175.765625 310.882812 179.738281 317.140625 186.21875 C 320.378906 189.675781 325.1875 195.976562 325.570312 197.503906 C 325.6875 197.941406 310.386719 208.203125 301.121094 213.960938 C 300.785156 214.179688 299.4375 212.730469 297.941406 210.503906 C 293.398438 203.90625 288.664062 201.0625 281.410156 200.566406 C 270.738281 199.832031 263.878906 205.417969 263.9375 214.738281 C 263.9375 214.898438 263.925781 215.089844 263.925781 215.28125 C 263.925781 217.492188 264.480469 219.574219 265.464844 221.390625 L 265.433594 221.320312 C 267.777344 226.171875 272.148438 229.085938 285.804688 234.992188 C 311 245.839844 321.773438 252.976562 328.46875 263.132812 C 335.945312 274.460938 337.628906 292.5625 332.546875 306.015625 C 326.976562 320.644531 313.125 330.582031 293.632812 333.863281 C 287.609375 334.933594 273.320312 334.773438 266.839844 333.601562 C 252.710938 331.078125 239.316406 324.101562 231.050781 314.941406 C 227.8125 311.382812 221.496094 302.046875 221.890625 301.386719 C 222.050781 301.152344 223.503906 300.257812 225.113281 299.320312 Z M 88.738281 188.503906 C 88.738281 180.675781 88.898438 174.140625 89.121094 173.992188 C 89.296875 173.757812 117.15625 173.640625 150.925781 173.699219 L 212.40625 173.875 L 212.570312 188.226562 L 212.6875 202.632812 L 166.886719 202.632812 L 166.886719 332.722656 L 134.496094 332.722656 L 134.496094 202.632812 L 88.738281 202.632812 Z M 88.738281 188.503906 " fill-opacity="1" fill-rule="nonzero"/></g></svg>