<svg xmlns="http://www.w3.org/2000/svg" xmlns:xlink="http://www.w3.org/1999/xlink" width="500" zoomAndPan="magnify" viewBox="0 0 375 374.999991" height="500" preserveAspectRatio="xMidYMid meet" version="1.0"><defs><clipPath id="b78e1ece95"><path d="M 37.5 65.0625 L 337.5 65.0625 L 337.5 310.3125 L 37.5 310.3125 Z M 37.5 65.0625 " clip-rule="nonzero"/></clipPath><clipPath id="c7ad1b0be7"><path d="M 128 127 L 337.5 127 L 337.5 310.3125 L 128 310.3125 Z M 128 127 " clip-rule="nonzero"/></clipPath><clipPath id="8117a788e1"><path d="M 128 217 L 234 217 L 234 310.3125 L 128 310.3125 Z M 128 217 " clip-rule="nonzero"/></clipPath><clipPath id="c880997150"><path d="M 37.5 157 L 239 157 L 239 310.3125 L 37.5 310.3125 Z M 37.5 157 " clip-rule="nonzero"/></clipPath></defs><g clip-path="url(#b78e1ece95)"><path fill="#c2dff6" d="M 337.492188 310.191406 L 37.496094 310.191406 L 37.496094 65.160156 L 337.492188 65.160156 L 337.492188 310.191406 " fill-opacity="1" fill-rule="nonzero"/></g><g clip-path="url(#c7ad1b0be7)"><path fill="#00ccb3" d="M 337.492188 198.738281 L 271.71875 127.972656 L 128.9375 310.191406 L 337.492188 310.191406 L 337.492188 198.738281 " fill-opacity="1" fill-rule="nonzero"/></g><g clip-path="url(#8117a788e1)"><path fill="#00bfb3" d="M 233.214844 310.191406 L 201.640625 217.410156 L 128.9375 310.191406 Z M 233.214844 310.191406 " fill-opacity="1" fill-rule="nonzero"/></g><g clip-path="url(#c880997150)"><path fill="#00ccb3" d="M 37.496094 310.191406 L 37.496094 239.042969 L 112.894531 157.101562 L 238.027344 310.191406 L 37.496094 310.191406 " fill-opacity="1" fill-rule="nonzero"/></g><path fill="#ffd008" d="M 197.316406 116.042969 C 197.316406 99.570312 183.984375 86.214844 167.539062 86.214844 C 151.09375 86.214844 137.761719 99.570312 137.761719 116.042969 C 137.761719 132.511719 151.09375 145.867188 167.539062 145.867188 C 183.984375 145.867188 197.316406 132.511719 197.316406 116.042969 " fill-opacity="1" fill-rule="nonzero"/></svg>