<svg xmlns="http://www.w3.org/2000/svg" xmlns:xlink="http://www.w3.org/1999/xlink" width="500" zoomAndPan="magnify" viewBox="0 0 375 374.999991" height="500" preserveAspectRatio="xMidYMid meet" version="1.0"><defs><clipPath id="f471b5650b"><path d="M 27.246094 8.445312 L 347.496094 8.445312 L 347.496094 366.195312 L 27.246094 366.195312 Z M 27.246094 8.445312 " clip-rule="nonzero"/></clipPath></defs><rect x="-37.5" width="450" fill="#ffffff" y="-37.499999" height="449.999989" fill-opacity="1"/><rect x="-37.5" width="450" fill="#ffffff" y="-37.499999" height="449.999989" fill-opacity="1"/><g clip-path="url(#f471b5650b)"><path fill="#0277bd" d="M 347.445312 8.445312 L 27.296875 8.445312 L 55.542969 328.535156 L 187.371094 366.195312 L 319.195312 328.535156 Z M 347.445312 8.445312 " fill-opacity="1" fill-rule="nonzero"/></g><path fill="#039be5" d="M 187.371094 36.6875 L 187.371094 337.007812 L 292.832031 306.882812 L 316.371094 36.6875 Z M 187.371094 36.6875 " fill-opacity="1" fill-rule="nonzero"/><path fill="#ffffff" d="M 273.054688 83.757812 L 187.371094 83.757812 L 187.371094 121.417969 L 233.507812 121.417969 L 230.683594 159.074219 L 187.371094 159.074219 L 187.371094 196.734375 L 228.800781 196.734375 L 225.976562 239.097656 L 187.371094 252.277344 L 187.371094 291.820312 L 261.757812 267.339844 L 268.347656 159.074219 Z M 273.054688 83.757812 " fill-opacity="1" fill-rule="nonzero"/><path fill="#eeeeee" d="M 187.371094 83.757812 L 187.371094 121.417969 L 103.566406 121.417969 L 100.742188 83.757812 Z M 144.054688 159.074219 L 145.9375 196.734375 L 187.371094 196.734375 L 187.371094 159.074219 Z M 147.820312 215.5625 L 110.15625 215.5625 L 112.980469 267.339844 L 187.371094 291.820312 L 187.371094 252.277344 L 148.761719 239.097656 Z M 147.820312 215.5625 " fill-opacity="1" fill-rule="nonzero"/></svg>